<svg width="560" height="120" viewBox="0 0 560 120" fill="none" xmlns="http://www.w3.org/2000/svg" role="img" aria-label="Prudential">
  <g fill="#ffffff">
    <path d="M61.6 9.1C49.7 12.8 39.2 20.1 31.1 31.8C23.4 42.8 19.2 55.7 19.2 70.2C19.2 84.6 23.3 97.1 31.6 107.8C40.5 119.2 52.4 126.4 67.4 129.4C77.6 131.4 88 130.8 98.5 127.6C112.9 123.1 125.1 114.4 134.9 101.6C142.2 92.2 146.3 81.8 147.4 70.4C148.6 58.3 146.4 46.9 140.8 36.2C135.2 25.7 127.1 17.1 116.4 10.5C106.2 4.3 95.1 1 83.1 0.7C75.1 0.4 68 1.4 61.6 9.1ZM79.7 16.6C95.6 17.8 108.9 24.2 119.5 35.9C129.1 46.5 134 58.9 134.2 73.2C134.4 87.6 129.3 100 118.8 110.2C108.8 119.9 96.5 124.9 81.8 125.2C66.8 125.6 54.2 120.9 44.1 111C34 101.2 28.9 88.9 28.8 74.2C28.7 59.3 33.6 46.8 43.5 36.6C53.8 25.9 66.8 20.2 79.7 16.6Z" opacity="0.98"/>
    <path d="M68.5 21.7C73.4 31.5 79.1 40.3 85.6 48.1C92.5 56.3 101.3 62.5 112.1 66.7C117.8 69 123.8 70.8 130.1 72.1C127.6 78.2 124.1 83.9 119.5 89.2C112.1 97.7 103.1 104 92.6 107.6C81.6 111.5 71.2 111.9 61.4 108.8C55.6 107 50.8 104.4 47 101.1C53.4 93.6 58.4 85.4 62 76.6C66.2 66.1 68.7 55.1 69.4 43.5C69.9 35.1 69.7 28.1 68.5 21.7Z" opacity="0.9"/>
    <path d="M54.7 27.4C60.1 30.2 64.8 32.9 68.8 35.5C64.8 43.5 62 51.9 60.5 60.6C58.3 72.9 58.7 85 61.8 96.7C59.5 97.2 57.3 97.5 55.1 97.5C47.5 97.4 40.9 95.2 35.4 90.7C29.9 86.2 26.4 80.3 24.8 73.1C23.1 65.6 23.9 58.3 27.2 51.2C31 43 37 35.9 45.1 29.8C48.2 27.6 51.3 26.2 54.7 27.4Z" opacity="0.95"/>
    <path d="M151 23H165.4V82.5H200.9V95.2H151V23Z"/>
    <path d="M210.5 23H224.9V95.2H210.5V23Z"/>
    <path d="M240.6 23H255.1L286.7 66.9V23H300.5V95.2H286.5L255 51.8V95.2H240.6V23Z"/>
    <path d="M321 23H370.9V36H335.4V51.9H367.7V64.5H335.4V82.4H371.8V95.2H321V23Z"/>
    <path d="M384.8 23H430.9C439.9 23 447 25.2 452.2 29.5C457.4 33.7 460 39.9 460 47.9C460 53.3 458.6 57.9 455.8 61.8C453 65.6 448.9 68.3 443.6 69.8L463 95.2H445.1L427.8 71.9H399.2V95.2H384.8V23ZM399.2 35.8V59.4H427.5C432.5 59.4 436.4 58.2 439.1 55.7C441.8 53.2 443.2 49.9 443.2 45.8C443.2 41.7 441.8 38.4 439.1 36C436.4 33.7 432.5 32.5 427.5 32.5H399.2Z"/>
    <path d="M472.6 23H487V95.2H472.6V23Z"/>
    <path d="M500.4 23H514.8V82.5H550V95.2H500.4V23Z"/>
  </g>
</svg>
